<svg id="Layer_1" data-name="Layer 1" xmlns="http://www.w3.org/2000/svg" xmlns:xlink="http://www.w3.org/1999/xlink" width="417.51" height="182.16" viewBox="0 0 417.51 182.16">
  <defs>
    <style>
      .cls-1 {
        fill: url(#linear-gradient);
      }

      .cls-2 {
        fill: none;
        stroke: #00c3ff;
        stroke-miterlimit: 10;
        stroke-width: 2px;
      }

      .cls-3 {
        fill: #f15a24;
      }

      .cls-4 {
        fill: url(#linear-gradient-5);
      }

      .cls-5 {
        fill: url(#linear-gradient-11);
      }

      .cls-6 {
        fill: url(#linear-gradient-16);
      }
    </style>
    <linearGradient id="linear-gradient" x1="235.16" y1="319.8" x2="235.16" y2="252.34" gradientUnits="userSpaceOnUse">
      <stop offset="0.15" stop-color="#fbb03b"/>
      <stop offset="0.26" stop-color="#faa73a"/>
      <stop offset="0.44" stop-color="#f88f36"/>
      <stop offset="0.65" stop-color="#f46830"/>
      <stop offset="0.91" stop-color="#ef3227"/>
      <stop offset="1" stop-color="#ed1c24"/>
    </linearGradient>
    <linearGradient id="linear-gradient-5" x1="354.31" y1="324.79" x2="354.31" y2="385.62" xlink:href="#linear-gradient"/>
    <linearGradient id="linear-gradient-11" x1="156.43" y1="327.27" x2="156.43" y2="386.45" xlink:href="#linear-gradient"/>
    <linearGradient id="linear-gradient-16" x1="402.17" y1="315.82" x2="402.17" y2="257.41" xlink:href="#linear-gradient"/>
  </defs>
  <title>FoobarLogo</title>
  <g>
    <g>
      <g>
        <path d="M152.59,319.19a149.54,149.54,0,0,0-4.23-27.35,105.72,105.72,0,0,0-5.55-15.76,168.52,168.52,0,0,0-8.59-16.93,159.76,159.76,0,0,0-10.63-16q-5.7-7.56-11.73-14.43l13.39,1.24q23.57,3.17,28.41,5.24a29.19,29.19,0,0,1,8.63,5.61,54,54,0,0,1,6.57,7.37,62.11,62.11,0,0,1,5.47,9c1.73,3.48,2,6.44,1,8.9a34.46,34.46,0,0,1,6.68,5,36.27,36.27,0,0,1,5.06,6.4,69.21,69.21,0,0,1,4.86,9.25,86.19,86.19,0,0,1,4.28,12.3,33.2,33.2,0,0,1,1.46,10.25,15.25,15.25,0,0,1-2.22,6.65c-1.3,2.19-2.83,3.41-4.52,3.65s-6.44.37-14.25.38H153.26ZM149.08,259c5.25.65,8.25.67,9,.08a4.19,4.19,0,0,0,1.42-2.67,6.16,6.16,0,0,0-1.06-4.08,14.32,14.32,0,0,0-3.24-3.81,11.48,11.48,0,0,0-4.33-2.17,57.63,57.63,0,0,0-7.21-1.28c-3.16-.4-4.61-.41-4.36,0s1.45,1.91,3.49,4.57A93.75,93.75,0,0,1,149.08,259Zm17.52,43.93q6.61.15,10.3-.11c2.47-.17,3.66-1.53,3.49-4.05a27.48,27.48,0,0,0-1.94-8.16,26.67,26.67,0,0,0-3.58-6.72,8.56,8.56,0,0,0-5.2-3,34.78,34.78,0,0,0-6.76-.71c-2.28,0-3.32.16-3.1.52a65.81,65.81,0,0,1,2.44,6.47A144.2,144.2,0,0,1,166.6,302.92Z" transform="translate(-109.46 -227.45)"/>
        <path d="M215.65,240.9q5.57,4.86,10.61,10.11a123.93,123.93,0,0,1,10.87,13.11A117.24,117.24,0,0,1,247.3,281a113.34,113.34,0,0,1,6.84,17.14,103.37,103.37,0,0,1,3.9,21.5H242a151.11,151.11,0,0,0-2.37-15.07c-.67-2.41-1.41-4.82-2.2-7.23l-16.2-.87q1.53,5.61,2.66,11.24.65,6,.83,11.93H208.15a104,104,0,0,0-2.91-20,129.67,129.67,0,0,0-5.16-16,112.62,112.62,0,0,0-7.93-16q-4.85-8.18-10.48-16.19c-3.77-5.34-5.77-9.31-5.66-11.95s1-3.85,2.88-3.73,5.63.52,11.34,1.21S204.43,239,215.65,240.9Zm14.81,39.4a94.52,94.52,0,0,0-7.75-14c-1.82-2.58-5-7-10.23-13.3-8.64-1.48-12.92-1.61-12.83-.35s.94,3.24,2.49,5.94,6.16,9.54,12.14,20.73Z" transform="translate(-109.46 -227.45)"/>
        <path d="M275.52,248.26q4.92,5.1,9.36,10.33,1,1.23,1.89,2.46l1.25,1.78q-12.42-1.47-18.86-2.09t-6.91-.08c-.32.37-.31,1,0,2a34.28,34.28,0,0,0,2.87,5.37c1.56,2.6,3.53,6,5.76,10.1s3.85,7.63,5.05,10.46,2.05,4.92,2.66,6.26a21.32,21.32,0,0,0,1.47,2.88,17.22,17.22,0,0,0,2.64,2.72,8.14,8.14,0,0,0,5.39,1.92L310,303q.87,2.76,1.63,5.54,1,5.56,1.54,11.14l-34.35,0H276.4c-1.36,0-3.16-.87-5.45-2.64a13.58,13.58,0,0,1-4.58-5.62c-.78-2-1.65-5.22-2.88-9.75a113.45,113.45,0,0,0-5.85-16.18,133.89,133.89,0,0,0-8.22-15.73c-2.6-4.25-4.95-7.69-6.86-10.36s-3.35-4.53-4.16-5.59-1.72-2.27-2.72-3.62a5.72,5.72,0,0,1-1-4.67c.33-1.74,1.85-2.47,4.62-2.24s7.17.75,13.23,1.56S266.27,246.83,275.52,248.26Z" transform="translate(-109.46 -227.45)"/>
        <path d="M322.26,319.39a103.83,103.83,0,0,0-4-21.4,76.46,76.46,0,0,0-7.38-16.57,172.89,172.89,0,0,0-11.59-17.16,134.16,134.16,0,0,0-13.74-15.36l19.38,2.29A177.53,177.53,0,0,1,319.77,267a133,133,0,0,1,8.2,11.15,104.13,104.13,0,0,0-3.65-24.67l19.08,2.25a103.44,103.44,0,0,1,3.1,30.21c9.4,6.36,15.22,10.93,18.06,13.93a118,118,0,0,1,7.72,9.05,42,42,0,0,1,5.93,10.76H358.87a53,53,0,0,0-8.64-12.19c-3-3.08-5.54-5.48-7.48-7.15l-2.61-2.24q-2.46-1.8-5-3.61a81.92,81.92,0,0,1,4.13,12.89A93.55,93.55,0,0,1,341,319.7H322.54Z" transform="translate(-109.46 -227.45)"/>
      </g>
      <g>
        <path class="cls-1" d="M152.59,319.19a149.54,149.54,0,0,0-4.23-27.35,105.72,105.72,0,0,0-5.55-15.76,168.52,168.52,0,0,0-8.59-16.93,159.76,159.76,0,0,0-10.63-16q-5.7-7.56-11.73-14.43l13.39,1.24q23.57,3.17,28.41,5.24a29.19,29.19,0,0,1,8.63,5.61,54,54,0,0,1,6.57,7.37,62.11,62.11,0,0,1,5.47,9c1.73,3.48,2,6.44,1,8.9a34.46,34.46,0,0,1,6.68,5,36.27,36.27,0,0,1,5.06,6.4,69.21,69.21,0,0,1,4.86,9.25,86.19,86.19,0,0,1,4.28,12.3,33.2,33.2,0,0,1,1.46,10.25,15.25,15.25,0,0,1-2.22,6.65c-1.3,2.19-2.83,3.41-4.52,3.65s-6.44.37-14.25.38H153.26ZM149.08,259c5.25.65,8.25.67,9,.08a4.19,4.19,0,0,0,1.42-2.67,6.16,6.16,0,0,0-1.06-4.08,14.32,14.32,0,0,0-3.24-3.81,11.48,11.48,0,0,0-4.33-2.17,57.63,57.63,0,0,0-7.21-1.28c-3.16-.4-4.61-.41-4.36,0s1.45,1.91,3.49,4.57A93.75,93.75,0,0,1,149.08,259Zm17.52,43.93q6.61.15,10.3-.11c2.47-.17,3.66-1.53,3.49-4.05a27.48,27.48,0,0,0-1.94-8.16,26.67,26.67,0,0,0-3.58-6.72,8.56,8.56,0,0,0-5.2-3,34.78,34.78,0,0,0-6.76-.71c-2.28,0-3.32.16-3.1.52a65.81,65.81,0,0,1,2.44,6.47A144.2,144.2,0,0,1,166.6,302.92Z" transform="translate(-109.46 -227.45)"/>
        <path class="cls-1" d="M215.65,240.9q5.57,4.86,10.61,10.11a123.93,123.93,0,0,1,10.87,13.11A117.24,117.24,0,0,1,247.3,281a113.34,113.34,0,0,1,6.84,17.14,103.37,103.37,0,0,1,3.9,21.5H242a151.11,151.11,0,0,0-2.37-15.07c-.67-2.41-1.41-4.82-2.2-7.23l-16.2-.87q1.53,5.61,2.66,11.24.65,6,.83,11.93H208.15a104,104,0,0,0-2.91-20,129.67,129.67,0,0,0-5.16-16,112.62,112.62,0,0,0-7.93-16q-4.85-8.18-10.48-16.19c-3.77-5.34-5.77-9.31-5.66-11.95s1-3.85,2.88-3.73,5.63.52,11.34,1.21S204.43,239,215.65,240.9Zm14.81,39.4a94.52,94.52,0,0,0-7.75-14c-1.82-2.58-5-7-10.23-13.3-8.64-1.48-12.92-1.61-12.83-.35s.94,3.24,2.49,5.94,6.16,9.54,12.14,20.73Z" transform="translate(-109.46 -227.45)"/>
        <path class="cls-1" d="M275.52,248.26q4.92,5.1,9.36,10.33,1,1.23,1.89,2.46l1.25,1.78q-12.42-1.47-18.86-2.09t-6.91-.08c-.32.37-.31,1,0,2a34.28,34.28,0,0,0,2.87,5.37c1.56,2.6,3.53,6,5.76,10.1s3.85,7.63,5.05,10.46,2.05,4.92,2.66,6.26a21.32,21.32,0,0,0,1.47,2.88,17.22,17.22,0,0,0,2.64,2.72,8.14,8.14,0,0,0,5.39,1.92L310,303q.87,2.76,1.63,5.54,1,5.56,1.54,11.14l-34.35,0H276.4c-1.36,0-3.16-.87-5.45-2.64a13.58,13.58,0,0,1-4.58-5.62c-.78-2-1.65-5.22-2.88-9.75a113.45,113.45,0,0,0-5.85-16.18,133.89,133.89,0,0,0-8.22-15.73c-2.6-4.25-4.95-7.69-6.86-10.36s-3.35-4.53-4.16-5.59-1.72-2.27-2.72-3.62a5.72,5.72,0,0,1-1-4.67c.33-1.74,1.85-2.47,4.62-2.24s7.17.75,13.23,1.56S266.27,246.83,275.52,248.26Z" transform="translate(-109.46 -227.45)"/>
        <path class="cls-1" d="M322.26,319.39a103.83,103.83,0,0,0-4-21.4,76.46,76.46,0,0,0-7.38-16.57,172.89,172.89,0,0,0-11.59-17.16,134.16,134.16,0,0,0-13.74-15.36l19.38,2.29A177.53,177.53,0,0,1,319.77,267a133,133,0,0,1,8.2,11.15,104.13,104.13,0,0,0-3.65-24.67l19.08,2.25a103.44,103.44,0,0,1,3.1,30.21c9.4,6.36,15.22,10.93,18.06,13.93a118,118,0,0,1,7.72,9.05,42,42,0,0,1,5.93,10.76H358.87a53,53,0,0,0-8.64-12.19c-3-3.08-5.54-5.48-7.48-7.15l-2.61-2.24q-2.46-1.8-5-3.61a81.92,81.92,0,0,1,4.13,12.89A93.55,93.55,0,0,1,341,319.7H322.54Z" transform="translate(-109.46 -227.45)"/>
      </g>
      <g>
        <path class="cls-2" d="M152.59,319.19a149.54,149.54,0,0,0-4.23-27.35,105.72,105.72,0,0,0-5.55-15.76,168.52,168.52,0,0,0-8.59-16.93,159.76,159.76,0,0,0-10.63-16q-5.7-7.56-11.73-14.43l13.39,1.24q23.57,3.17,28.41,5.24a29.19,29.19,0,0,1,8.63,5.61,54,54,0,0,1,6.57,7.37,62.11,62.11,0,0,1,5.47,9c1.73,3.48,2,6.44,1,8.9a34.46,34.46,0,0,1,6.68,5,36.27,36.27,0,0,1,5.06,6.4,69.21,69.21,0,0,1,4.86,9.25,86.19,86.19,0,0,1,4.28,12.3,33.2,33.2,0,0,1,1.46,10.25,15.25,15.25,0,0,1-2.22,6.65c-1.3,2.19-2.83,3.41-4.52,3.65s-6.44.37-14.25.38H153.26ZM149.08,259c5.25.65,8.25.67,9,.08a4.19,4.19,0,0,0,1.42-2.67,6.16,6.16,0,0,0-1.06-4.08,14.32,14.32,0,0,0-3.24-3.81,11.48,11.48,0,0,0-4.33-2.17,57.63,57.63,0,0,0-7.21-1.28c-3.16-.4-4.61-.41-4.36,0s1.45,1.91,3.49,4.57A93.75,93.75,0,0,1,149.08,259Zm17.52,43.93q6.61.15,10.3-.11c2.47-.17,3.66-1.53,3.49-4.05a27.48,27.48,0,0,0-1.94-8.16,26.67,26.67,0,0,0-3.58-6.72,8.56,8.56,0,0,0-5.2-3,34.78,34.78,0,0,0-6.76-.71c-2.28,0-3.32.16-3.1.52a65.81,65.81,0,0,1,2.44,6.47A144.2,144.2,0,0,1,166.6,302.92Z" transform="translate(-109.46 -227.45)"/>
        <path class="cls-2" d="M215.65,240.9q5.57,4.86,10.61,10.11a123.93,123.93,0,0,1,10.87,13.11A117.24,117.24,0,0,1,247.3,281a113.34,113.34,0,0,1,6.84,17.14,103.37,103.37,0,0,1,3.9,21.5H242a151.11,151.11,0,0,0-2.37-15.07c-.67-2.41-1.41-4.82-2.2-7.23l-16.2-.87q1.53,5.61,2.66,11.24.65,6,.83,11.93H208.15a104,104,0,0,0-2.91-20,129.67,129.67,0,0,0-5.16-16,112.62,112.62,0,0,0-7.93-16q-4.85-8.18-10.48-16.19c-3.77-5.34-5.77-9.31-5.66-11.95s1-3.85,2.88-3.73,5.63.52,11.34,1.21S204.43,239,215.65,240.9Zm14.81,39.4a94.52,94.52,0,0,0-7.75-14c-1.82-2.58-5-7-10.23-13.3-8.64-1.48-12.92-1.61-12.83-.35s.94,3.24,2.49,5.94,6.16,9.54,12.14,20.73Z" transform="translate(-109.46 -227.45)"/>
        <path class="cls-2" d="M275.52,248.26q4.92,5.1,9.36,10.33,1,1.23,1.89,2.46l1.25,1.78q-12.42-1.47-18.86-2.09t-6.91-.08c-.32.37-.31,1,0,2a34.28,34.28,0,0,0,2.87,5.37c1.56,2.6,3.53,6,5.76,10.1s3.85,7.63,5.05,10.46,2.05,4.92,2.66,6.26a21.32,21.32,0,0,0,1.47,2.88,17.22,17.22,0,0,0,2.64,2.72,8.14,8.14,0,0,0,5.39,1.92L310,303q.87,2.76,1.63,5.54,1,5.56,1.54,11.14l-34.35,0H276.4c-1.36,0-3.16-.87-5.45-2.64a13.58,13.58,0,0,1-4.58-5.62c-.78-2-1.65-5.22-2.88-9.75a113.45,113.45,0,0,0-5.85-16.18,133.89,133.89,0,0,0-8.22-15.73c-2.6-4.25-4.95-7.69-6.86-10.36s-3.35-4.53-4.16-5.59-1.72-2.27-2.72-3.62a5.72,5.72,0,0,1-1-4.67c.33-1.74,1.85-2.47,4.62-2.24s7.17.75,13.23,1.56S266.27,246.83,275.52,248.26Z" transform="translate(-109.46 -227.45)"/>
        <path class="cls-2" d="M322.26,319.39a103.83,103.83,0,0,0-4-21.4,76.46,76.46,0,0,0-7.38-16.57,172.89,172.89,0,0,0-11.59-17.16,134.16,134.16,0,0,0-13.74-15.36l19.38,2.29A177.53,177.53,0,0,1,319.77,267a133,133,0,0,1,8.2,11.15,104.13,104.13,0,0,0-3.65-24.67l19.08,2.25a103.44,103.44,0,0,1,3.1,30.21c9.4,6.36,15.22,10.93,18.06,13.93a118,118,0,0,1,7.72,9.05,42,42,0,0,1,5.93,10.76H358.87a53,53,0,0,0-8.64-12.19c-3-3.08-5.54-5.48-7.48-7.15l-2.61-2.24q-2.46-1.8-5-3.61a81.92,81.92,0,0,1,4.13,12.89A93.55,93.55,0,0,1,341,319.7H322.54Z" transform="translate(-109.46 -227.45)"/>
      </g>
    </g>
    <g>
      <g>
        <path class="cls-3" d="M198.68,399.58a98.27,98.27,0,0,0,4.69-8.93,89.65,89.65,0,0,0,3.81-10.57,80,80,0,0,0,3-15,97.28,97.28,0,0,0,.33-14.85,164.34,164.34,0,0,0-2.76-22.54q14.6-.18,41.74-.47a71.63,71.63,0,0,1,3.5,14.7l-27.43.7a93.67,93.67,0,0,1,1,12l27.51-1.21a67.39,67.39,0,0,1-1.34,13.76L225,369.26a115.58,115.58,0,0,1-3.94,13.91,121.37,121.37,0,0,1-6.8,14.58Z" transform="translate(-109.46 -227.45)"/>
        <path class="cls-3" d="M256,385.67a98.35,98.35,0,0,0,5.63-17.24,67.82,67.82,0,0,0,1.3-10,81.9,81.9,0,0,0-.64-14.83c-.79-6.17-1.56-10.15-1.72-11.79a4.66,4.66,0,0,1,1.26-4c1-1,2.71-1.6,5.09-1.73s6.95-.23,13.71-.3,11.81-.08,15.14,0a12.8,12.8,0,0,1,7.91,2.4c1.91,1.54,3.61,4.9,4.68,10A74.66,74.66,0,0,1,310,353.88a72.85,72.85,0,0,1-1.26,13.55,70.89,70.89,0,0,1-2.57,9.55,17.05,17.05,0,0,1-3.17,5.86,20,20,0,0,1-4.3,3.44,14.91,14.91,0,0,1-5.46,2q-2.85.43-15.17,1.77t-16.6,1.84c-2.86.33-4.62.06-5.3-.82a3.82,3.82,0,0,1-.73-3.11A7.18,7.18,0,0,1,256,385.67Zm23.08-47.11c-2.45.19-3.21,2.38-2.57,6.48a46.77,46.77,0,0,1,.56,10.6c-.23,3,.79,3.48,3.17,1.55s5.85-4.82,10.29-8.63,5.73-6.89,4-9.36C293.7,337.8,288.55,337.56,279.11,338.56Zm9.59,40.13c2.94-.85,4.78-3,5.27-6.54s1-7.07,1.57-10.49-.64-3.87-3.48-1.24a96.1,96.1,0,0,1-10.53,8.23A22.93,22.93,0,0,0,272.92,379C273.57,380.42,278.83,380.3,288.7,378.69Z" transform="translate(-109.46 -227.45)"/>
        <path class="cls-3" d="M312.17,379.73a87.94,87.94,0,0,0,4.94-15.68,59.59,59.59,0,0,0,1-9.11,73.16,73.16,0,0,0-.95-13.5c-.89-5.62-1.67-9.25-1.85-10.74a4,4,0,0,1,1.23-3.67c1-.94,2.71-1.46,5.09-1.58s6.94-.22,13.71-.29,11.8-.08,15.14,0a13.75,13.75,0,0,1,7.92,2.17c1.92,1.38,3.64,4.43,4.78,9a66,66,0,0,1,1.9,14.21,62.11,62.11,0,0,1-.83,12.22,59,59,0,0,1-2.15,8.61,14.11,14.11,0,0,1-2.87,5.28,18.11,18.11,0,0,1-4.13,3.14,15.31,15.31,0,0,1-5.37,1.88c-1.89.28-6.95.88-15.17,1.77S320.82,385,318,385.31s-4.65.11-5.38-.69a3.32,3.32,0,0,1-.91-2.8A5.78,5.78,0,0,1,312.17,379.73Zm21.73-42.91c-2.44.18-3.18,2.18-2.47,5.9a41,41,0,0,1,.78,9.62c-.16,2.71.88,3.15,3.21,1.39s5.73-4.4,10.11-7.88,5.6-6.26,3.83-8.5C348.49,336.08,343.33,335.89,333.9,336.82Zm10.76,36.28a6.38,6.38,0,0,0,5-6c.34-3.21.73-6.38,1.19-9.48s-.76-3.49-3.53-1.09A94.86,94.86,0,0,1,337,364.1a20.12,20.12,0,0,0-8.22,9.42C329.54,374.81,334.82,374.65,344.66,373.1Z" transform="translate(-109.46 -227.45)"/>
        <path class="cls-3" d="M367.18,379.38a84.09,84.09,0,0,0,5.95-15.17,43.8,43.8,0,0,0,1.39-9.13,78.87,78.87,0,0,0-.15-10.17,63.54,63.54,0,0,0-1.6-10q-1.18-4.83-2.64-9.43l11.81-.39q20.18.06,23.46,1.11a8.78,8.78,0,0,1,4.78,3.25,14,14,0,0,1,2,4.58,19.35,19.35,0,0,1,.35,5.66,8.08,8.08,0,0,1-3.38,5.78A11.37,11.37,0,0,1,413,348a8.51,8.51,0,0,1,1.83,3.54,19.36,19.36,0,0,1,.59,5.17,30.91,30.91,0,0,1-.85,6.79,15,15,0,0,1-2.33,5.63A18.18,18.18,0,0,1,408,373a14.58,14.58,0,0,1-5.38,2.44q-2.46.48-13.31,1.75l-17.06,2-4.67.55Zm21.05-36q6.81-.12,8.3-.83a9.2,9.2,0,0,0,2.65-1.93,3.58,3.58,0,0,0,1.1-2.68,3.3,3.3,0,0,0-1-2.32,4.93,4.93,0,0,0-2.86-1.1,54.51,54.51,0,0,0-6-.19c-2.72,0-4.07.16-4,.41a25.88,25.88,0,0,0,.8,2.87A29.55,29.55,0,0,1,388.23,343.34Zm-2.45,25.47q6-.6,9.56-1.14c2.34-.35,3.93-1.24,4.72-2.69a11,11,0,0,0,1.36-4.59,6.68,6.68,0,0,0-.59-3.69c-.49-.83-1.67-1.28-3.53-1.34a43.83,43.83,0,0,0-5.95.24c-2.1.22-3.13.43-3.08.63a22.72,22.72,0,0,1-.43,3.72A70.5,70.5,0,0,1,385.78,368.81Z" transform="translate(-109.46 -227.45)"/>
        <path class="cls-3" d="M460,324.38a55.67,55.67,0,0,1,4.06,6.1,37.5,37.5,0,0,1,3.23,7.71,39,39,0,0,1,1.65,9.54,42.57,42.57,0,0,1-.56,9.32,45.64,45.64,0,0,1-3.74,11.16L449.8,370a82.64,82.64,0,0,0,2.84-7.82c.23-1.26.43-2.53.61-3.82l-14.63,1.15c-.48,2-1,4.06-1.63,6q-1.49,3.21-3.19,6.32l-15.31,1.79a50.44,50.44,0,0,0,4.19-10.68,56.74,56.74,0,0,0,1.52-8.87,40.57,40.57,0,0,0-.24-9.24c-.43-3.19-1-6.45-1.64-9.76s-.25-6,1.41-7.88,3.27-2.91,4.94-3,5-.16,9.91-.2S450.67,324.08,460,324.38ZM453.7,349a30.05,30.05,0,0,0-.77-8c-.44-1.49-1.26-4.06-2.73-7.83-7.25-.18-11.16.14-11.76,1a6.07,6.07,0,0,0-.77,3.76c.05,1.64.85,5.79,1.52,12.08Z" transform="translate(-109.46 -227.45)"/>
        <path class="cls-3" d="M473.62,323.63q21.74,0,29.72.05t9.88.72a28.67,28.67,0,0,1,3.95,1.7,8.48,8.48,0,0,1,3.48,3.83,29.24,29.24,0,0,1,2.78,10.78,7.22,7.22,0,0,1-1.06,3.09c-.71,1.26-3.41,2.76-8.15,4.54,6.62,3.77,10.64,8.15,11.57,13.05l-17.43,2.05a18.61,18.61,0,0,0-4.48-5.72c-1.57-1.25-4.5-2.57-8.79-4.07a60.47,60.47,0,0,1-3.41,11.62l-17.42,2.05a58.07,58.07,0,0,0,4.56-13.23,39.58,39.58,0,0,0,.73-9.89,44.92,44.92,0,0,0-1.83-10.41A56.32,56.32,0,0,0,473.62,323.63Zm22,20.49a62.44,62.44,0,0,0,8.86-1,3.9,3.9,0,0,0,2.69-1.68,3.77,3.77,0,0,0,.53-2.05,16.35,16.35,0,0,0-1-3.54,5.39,5.39,0,0,0-3.08-3.44c-1.38-.51-5-.67-10.82-.49A36.5,36.5,0,0,1,495.62,344.12Z" transform="translate(-109.46 -227.45)"/>
      </g>
      <g>
        <path class="cls-4" d="M198.68,399.58a98.27,98.27,0,0,0,4.69-8.93,89.65,89.65,0,0,0,3.81-10.57,80,80,0,0,0,3-15,97.28,97.28,0,0,0,.33-14.85,164.34,164.34,0,0,0-2.76-22.54q14.6-.18,41.74-.47a71.63,71.63,0,0,1,3.5,14.7l-27.43.7a93.67,93.67,0,0,1,1,12l27.51-1.21a67.39,67.39,0,0,1-1.34,13.76L225,369.26a115.58,115.58,0,0,1-3.94,13.91,121.37,121.37,0,0,1-6.8,14.58Z" transform="translate(-109.46 -227.45)"/>
        <path class="cls-4" d="M256,385.67a98.35,98.35,0,0,0,5.63-17.24,67.82,67.82,0,0,0,1.3-10,81.9,81.9,0,0,0-.64-14.83c-.79-6.17-1.56-10.15-1.72-11.79a4.66,4.66,0,0,1,1.26-4c1-1,2.71-1.6,5.09-1.73s6.95-.23,13.71-.3,11.81-.08,15.14,0a12.8,12.8,0,0,1,7.91,2.4c1.91,1.54,3.61,4.9,4.68,10A74.66,74.66,0,0,1,310,353.88a72.85,72.85,0,0,1-1.26,13.55,70.89,70.89,0,0,1-2.57,9.55,17.05,17.05,0,0,1-3.17,5.86,20,20,0,0,1-4.3,3.44,14.91,14.91,0,0,1-5.46,2q-2.85.43-15.17,1.77t-16.6,1.84c-2.86.33-4.62.06-5.3-.82a3.82,3.82,0,0,1-.73-3.11A7.18,7.18,0,0,1,256,385.67Zm23.08-47.11c-2.45.19-3.21,2.38-2.57,6.48a46.77,46.77,0,0,1,.56,10.6c-.23,3,.79,3.48,3.17,1.55s5.85-4.82,10.29-8.63,5.73-6.89,4-9.36C293.7,337.8,288.55,337.56,279.11,338.56Zm9.59,40.13c2.94-.85,4.78-3,5.27-6.54s1-7.07,1.57-10.49-.64-3.87-3.48-1.24a96.1,96.1,0,0,1-10.53,8.23A22.93,22.93,0,0,0,272.92,379C273.57,380.42,278.83,380.3,288.7,378.69Z" transform="translate(-109.46 -227.45)"/>
        <path class="cls-4" d="M312.17,379.73a87.94,87.94,0,0,0,4.94-15.68,59.59,59.59,0,0,0,1-9.11,73.16,73.16,0,0,0-.95-13.5c-.89-5.62-1.67-9.25-1.85-10.74a4,4,0,0,1,1.23-3.67c1-.94,2.71-1.46,5.09-1.58s6.94-.22,13.71-.29,11.8-.08,15.14,0a13.75,13.75,0,0,1,7.92,2.17c1.92,1.38,3.64,4.43,4.78,9a66,66,0,0,1,1.9,14.21,62.11,62.11,0,0,1-.83,12.22,59,59,0,0,1-2.15,8.61,14.11,14.11,0,0,1-2.87,5.28,18.11,18.11,0,0,1-4.13,3.14,15.31,15.31,0,0,1-5.37,1.88c-1.89.28-6.95.88-15.17,1.77S320.82,385,318,385.31s-4.65.11-5.38-.69a3.32,3.32,0,0,1-.91-2.8A5.78,5.78,0,0,1,312.17,379.73Zm21.73-42.91c-2.44.18-3.18,2.18-2.47,5.9a41,41,0,0,1,.78,9.62c-.16,2.71.88,3.15,3.21,1.39s5.73-4.4,10.11-7.88,5.6-6.26,3.83-8.5C348.49,336.08,343.33,335.89,333.9,336.82Zm10.76,36.28a6.38,6.38,0,0,0,5-6c.34-3.21.73-6.38,1.19-9.48s-.76-3.49-3.53-1.09A94.86,94.86,0,0,1,337,364.1a20.12,20.12,0,0,0-8.22,9.42C329.54,374.81,334.82,374.65,344.66,373.1Z" transform="translate(-109.46 -227.45)"/>
        <path class="cls-4" d="M367.18,379.38a84.09,84.09,0,0,0,5.95-15.17,43.8,43.8,0,0,0,1.39-9.13,78.87,78.87,0,0,0-.15-10.17,63.54,63.54,0,0,0-1.6-10q-1.18-4.83-2.64-9.43l11.81-.39q20.18.06,23.46,1.11a8.78,8.78,0,0,1,4.78,3.25,14,14,0,0,1,2,4.58,19.35,19.35,0,0,1,.35,5.66,8.08,8.08,0,0,1-3.38,5.78A11.37,11.37,0,0,1,413,348a8.51,8.51,0,0,1,1.83,3.54,19.36,19.36,0,0,1,.59,5.17,30.91,30.91,0,0,1-.85,6.79,15,15,0,0,1-2.33,5.63A18.18,18.18,0,0,1,408,373a14.58,14.58,0,0,1-5.38,2.44q-2.46.48-13.31,1.75l-17.06,2-4.67.55Zm21.05-36q6.81-.12,8.3-.83a9.2,9.2,0,0,0,2.65-1.93,3.58,3.58,0,0,0,1.1-2.68,3.3,3.3,0,0,0-1-2.32,4.93,4.93,0,0,0-2.86-1.1,54.51,54.51,0,0,0-6-.19c-2.72,0-4.07.16-4,.41a25.88,25.88,0,0,0,.8,2.87A29.55,29.55,0,0,1,388.23,343.34Zm-2.45,25.47q6-.6,9.56-1.14c2.34-.35,3.93-1.24,4.72-2.69a11,11,0,0,0,1.36-4.59,6.68,6.68,0,0,0-.59-3.69c-.49-.83-1.67-1.28-3.53-1.34a43.83,43.83,0,0,0-5.95.24c-2.1.22-3.13.43-3.08.63a22.72,22.72,0,0,1-.43,3.72A70.5,70.5,0,0,1,385.78,368.81Z" transform="translate(-109.46 -227.45)"/>
        <path class="cls-4" d="M460,324.38a55.67,55.67,0,0,1,4.06,6.1,37.5,37.5,0,0,1,3.23,7.71,39,39,0,0,1,1.65,9.54,42.57,42.57,0,0,1-.56,9.32,45.64,45.64,0,0,1-3.74,11.16L449.8,370a82.64,82.64,0,0,0,2.84-7.82c.23-1.26.43-2.53.61-3.82l-14.63,1.15c-.48,2-1,4.06-1.63,6q-1.49,3.21-3.19,6.32l-15.31,1.79a50.44,50.44,0,0,0,4.19-10.68,56.74,56.74,0,0,0,1.52-8.87,40.57,40.57,0,0,0-.24-9.24c-.43-3.19-1-6.45-1.64-9.76s-.25-6,1.41-7.88,3.27-2.91,4.94-3,5-.16,9.91-.2S450.67,324.08,460,324.38ZM453.7,349a30.05,30.05,0,0,0-.77-8c-.44-1.49-1.26-4.06-2.73-7.83-7.25-.18-11.16.14-11.76,1a6.07,6.07,0,0,0-.77,3.76c.05,1.64.85,5.79,1.52,12.08Z" transform="translate(-109.46 -227.45)"/>
        <path class="cls-4" d="M473.62,323.63q21.74,0,29.72.05t9.88.72a28.67,28.67,0,0,1,3.95,1.7,8.48,8.48,0,0,1,3.48,3.83,29.24,29.24,0,0,1,2.78,10.78,7.22,7.22,0,0,1-1.06,3.09c-.71,1.26-3.41,2.76-8.15,4.54,6.62,3.77,10.64,8.15,11.57,13.05l-17.43,2.05a18.61,18.61,0,0,0-4.48-5.72c-1.57-1.25-4.5-2.57-8.79-4.07a60.47,60.47,0,0,1-3.41,11.62l-17.42,2.05a58.07,58.07,0,0,0,4.56-13.23,39.58,39.58,0,0,0,.73-9.89,44.92,44.92,0,0,0-1.83-10.41A56.32,56.32,0,0,0,473.62,323.63Zm22,20.49a62.44,62.44,0,0,0,8.86-1,3.9,3.9,0,0,0,2.69-1.68,3.77,3.77,0,0,0,.53-2.05,16.35,16.35,0,0,0-1-3.54,5.39,5.39,0,0,0-3.08-3.44c-1.38-.51-5-.67-10.82-.49A36.5,36.5,0,0,1,495.62,344.12Z" transform="translate(-109.46 -227.45)"/>
      </g>
      <g>
        <path class="cls-2" d="M198.68,399.58a98.27,98.27,0,0,0,4.69-8.93,89.65,89.65,0,0,0,3.81-10.57,80,80,0,0,0,3-15,97.28,97.28,0,0,0,.33-14.85,164.34,164.34,0,0,0-2.76-22.54q14.6-.18,41.74-.47a71.63,71.63,0,0,1,3.5,14.7l-27.43.7a93.67,93.67,0,0,1,1,12l27.51-1.21a67.39,67.39,0,0,1-1.34,13.76L225,369.26a115.58,115.58,0,0,1-3.94,13.91,121.37,121.37,0,0,1-6.8,14.58Z" transform="translate(-109.46 -227.45)"/>
        <path class="cls-2" d="M256,385.67a98.35,98.35,0,0,0,5.63-17.24,67.82,67.82,0,0,0,1.3-10,81.9,81.9,0,0,0-.64-14.83c-.79-6.17-1.56-10.15-1.72-11.79a4.66,4.66,0,0,1,1.26-4c1-1,2.71-1.6,5.09-1.73s6.95-.23,13.71-.3,11.81-.08,15.14,0a12.8,12.8,0,0,1,7.91,2.4c1.91,1.54,3.61,4.9,4.68,10A74.66,74.66,0,0,1,310,353.88a72.85,72.85,0,0,1-1.26,13.55,70.89,70.89,0,0,1-2.57,9.55,17.05,17.05,0,0,1-3.17,5.86,20,20,0,0,1-4.3,3.44,14.91,14.91,0,0,1-5.46,2q-2.85.43-15.17,1.77t-16.6,1.84c-2.86.33-4.62.06-5.3-.82a3.82,3.82,0,0,1-.73-3.11A7.18,7.18,0,0,1,256,385.67Zm23.08-47.11c-2.45.19-3.21,2.38-2.57,6.48a46.77,46.77,0,0,1,.56,10.6c-.23,3,.79,3.48,3.17,1.55s5.85-4.82,10.29-8.63,5.73-6.89,4-9.36C293.7,337.8,288.55,337.56,279.11,338.56Zm9.59,40.13c2.94-.85,4.78-3,5.27-6.54s1-7.07,1.57-10.49-.64-3.87-3.48-1.24a96.1,96.1,0,0,1-10.53,8.23A22.93,22.93,0,0,0,272.92,379C273.57,380.42,278.83,380.3,288.7,378.69Z" transform="translate(-109.46 -227.45)"/>
        <path class="cls-2" d="M312.17,379.73a87.94,87.94,0,0,0,4.94-15.68,59.59,59.59,0,0,0,1-9.11,73.16,73.16,0,0,0-.95-13.5c-.89-5.62-1.67-9.25-1.85-10.74a4,4,0,0,1,1.23-3.67c1-.94,2.71-1.46,5.09-1.58s6.94-.22,13.71-.29,11.8-.08,15.14,0a13.75,13.75,0,0,1,7.92,2.17c1.92,1.38,3.64,4.43,4.78,9a66,66,0,0,1,1.9,14.21,62.11,62.11,0,0,1-.83,12.22,59,59,0,0,1-2.15,8.61,14.11,14.11,0,0,1-2.87,5.28,18.11,18.11,0,0,1-4.13,3.14,15.31,15.31,0,0,1-5.37,1.88c-1.89.28-6.95.88-15.17,1.77S320.82,385,318,385.31s-4.65.11-5.38-.69a3.32,3.32,0,0,1-.91-2.8A5.78,5.78,0,0,1,312.17,379.73Zm21.73-42.91c-2.44.18-3.18,2.18-2.47,5.9a41,41,0,0,1,.78,9.62c-.16,2.71.88,3.15,3.21,1.39s5.73-4.4,10.11-7.88,5.6-6.26,3.83-8.5C348.49,336.08,343.33,335.89,333.9,336.82Zm10.76,36.28a6.38,6.38,0,0,0,5-6c.34-3.21.73-6.38,1.19-9.48s-.76-3.49-3.53-1.09A94.86,94.86,0,0,1,337,364.1a20.12,20.12,0,0,0-8.22,9.42C329.54,374.81,334.82,374.65,344.66,373.1Z" transform="translate(-109.46 -227.45)"/>
        <path class="cls-2" d="M367.18,379.38a84.09,84.09,0,0,0,5.95-15.17,43.8,43.8,0,0,0,1.39-9.13,78.87,78.87,0,0,0-.15-10.17,63.54,63.54,0,0,0-1.6-10q-1.18-4.83-2.64-9.43l11.81-.39q20.18.06,23.46,1.11a8.78,8.78,0,0,1,4.78,3.25,14,14,0,0,1,2,4.58,19.35,19.35,0,0,1,.35,5.66,8.08,8.08,0,0,1-3.38,5.78A11.37,11.37,0,0,1,413,348a8.51,8.51,0,0,1,1.83,3.54,19.36,19.36,0,0,1,.59,5.17,30.91,30.91,0,0,1-.85,6.79,15,15,0,0,1-2.33,5.63A18.18,18.18,0,0,1,408,373a14.58,14.58,0,0,1-5.38,2.44q-2.46.48-13.31,1.75l-17.06,2-4.67.55Zm21.05-36q6.81-.12,8.3-.83a9.2,9.2,0,0,0,2.65-1.93,3.58,3.58,0,0,0,1.1-2.68,3.3,3.3,0,0,0-1-2.32,4.93,4.93,0,0,0-2.86-1.1,54.51,54.51,0,0,0-6-.19c-2.72,0-4.07.16-4,.41a25.88,25.88,0,0,0,.8,2.87A29.55,29.55,0,0,1,388.23,343.34Zm-2.45,25.47q6-.6,9.56-1.14c2.34-.35,3.93-1.24,4.72-2.69a11,11,0,0,0,1.36-4.59,6.68,6.68,0,0,0-.59-3.69c-.49-.83-1.67-1.28-3.53-1.34a43.83,43.83,0,0,0-5.95.24c-2.1.22-3.13.43-3.08.63a22.72,22.72,0,0,1-.43,3.72A70.5,70.5,0,0,1,385.78,368.81Z" transform="translate(-109.46 -227.45)"/>
        <path class="cls-2" d="M460,324.38a55.67,55.67,0,0,1,4.06,6.1,37.5,37.5,0,0,1,3.23,7.71,39,39,0,0,1,1.65,9.54,42.57,42.57,0,0,1-.56,9.32,45.64,45.64,0,0,1-3.74,11.16L449.8,370a82.64,82.64,0,0,0,2.84-7.82c.23-1.26.43-2.53.61-3.82l-14.63,1.15c-.48,2-1,4.06-1.63,6q-1.49,3.21-3.19,6.32l-15.31,1.79a50.44,50.44,0,0,0,4.19-10.68,56.74,56.74,0,0,0,1.52-8.87,40.57,40.57,0,0,0-.24-9.24c-.43-3.19-1-6.45-1.64-9.76s-.25-6,1.41-7.88,3.27-2.91,4.94-3,5-.16,9.91-.2S450.67,324.08,460,324.38ZM453.7,349a30.05,30.05,0,0,0-.77-8c-.44-1.49-1.26-4.06-2.73-7.83-7.25-.18-11.16.14-11.76,1a6.07,6.07,0,0,0-.77,3.76c.05,1.64.85,5.79,1.52,12.08Z" transform="translate(-109.46 -227.45)"/>
        <path class="cls-2" d="M473.62,323.63q21.74,0,29.72.05t9.88.72a28.67,28.67,0,0,1,3.95,1.7,8.48,8.48,0,0,1,3.48,3.83,29.24,29.24,0,0,1,2.78,10.78,7.22,7.22,0,0,1-1.06,3.09c-.71,1.26-3.41,2.76-8.15,4.54,6.62,3.77,10.64,8.15,11.57,13.05l-17.43,2.05a18.61,18.61,0,0,0-4.48-5.72c-1.57-1.25-4.5-2.57-8.79-4.07a60.47,60.47,0,0,1-3.41,11.62l-17.42,2.05a58.07,58.07,0,0,0,4.56-13.23,39.58,39.58,0,0,0,.73-9.89,44.92,44.92,0,0,0-1.83-10.41A56.32,56.32,0,0,0,473.62,323.63Zm22,20.49a62.44,62.44,0,0,0,8.86-1,3.9,3.9,0,0,0,2.69-1.68,3.77,3.77,0,0,0,.53-2.05,16.35,16.35,0,0,0-1-3.54,5.39,5.39,0,0,0-3.08-3.44c-1.38-.51-5-.67-10.82-.49A36.5,36.5,0,0,1,495.62,344.12Z" transform="translate(-109.46 -227.45)"/>
      </g>
    </g>
    <g>
      <g>
        <path class="cls-3" d="M166.24,330.52c.76,3.19,1.24,5.67,1.52,7.44l-7.19.19c.56,3.55.86,6.41,1,8.6s.18,4.32.12,6.4a83.46,83.46,0,0,1-1.31,11.2l-6.7.42a108.54,108.54,0,0,0,1.26-15.41,47.06,47.06,0,0,0-1.17-10.92l-6,.15c-.64-3.53-1.25-6.12-1.7-7.75l1,0Z" transform="translate(-109.46 -227.45)"/>
        <path class="cls-3" d="M169.66,359.79c.71-4.41,1-7.37,1.07-8.86s.11-3.15.05-5a68.67,68.67,0,0,0-.71-7.29c-.44-3-.76-4.91-.83-5.7a2.46,2.46,0,0,1,.55-1.93,3.09,3.09,0,0,1,2.18-.83c1-.07,3-.12,5.84-.17s5-.05,6.44,0a4.8,4.8,0,0,1,3.34,1.2c.8.77,1.49,2.47,2,5.07a68.31,68.31,0,0,1,1.13,15.28c-.09,2-.24,3.7-.42,5.17a9.38,9.38,0,0,1-.85,3.2,6.74,6.74,0,0,1-1.5,1.82,3.91,3.91,0,0,1-2.13.94c-.78.09-2.87.22-6.29.39l-6.9.37a2.66,2.66,0,0,1-2.36-.66,3.16,3.16,0,0,1-.64-1.73A4.46,4.46,0,0,1,169.66,359.79Zm7.37-5.18a6.94,6.94,0,0,0,0,.77,3.11,3.11,0,0,0,.23,1.12.75.75,0,0,0,.82.48c.42,0,1.22-.05,2.4-.09s1.91-.07,2.18-.11a1.19,1.19,0,0,0,.74-.57,4.48,4.48,0,0,0,.52-1.15,9.5,9.5,0,0,0,.27-2.06c.05-.95.09-2.05.1-3.32s0-2.8-.12-4.6-.25-3.53-.46-5.19a9.93,9.93,0,0,0-.77-3.24,1.41,1.41,0,0,0-1.18-.77c-.5,0-1.25,0-2.25,0s-1.68.05-2,.09a.87.87,0,0,0-.74.53,2.32,2.32,0,0,0-.16,1.2c0,.49.18,1.68.37,3.57s.3,3.41.34,4.58.05,2.23,0,3.16S177.24,351.82,177,354.61Z" transform="translate(-109.46 -227.45)"/>
        <path class="cls-3" d="M156.7,376.05c-.11,3-.32,5.27-.52,6.92l-7.31.64a79.08,79.08,0,0,1-1.38,7.94q-.7,3-1.67,5.87a84.46,84.46,0,0,1-4.48,10.17l-6.88.82a99.85,99.85,0,0,0,5.6-14,40.17,40.17,0,0,0,1.87-10.07l-6.05.53c.34-3.27.44-5.69.44-7.21l1-.08Z" transform="translate(-109.46 -227.45)"/>
        <path class="cls-3" d="M151.21,406.32a84.69,84.69,0,0,0,4-8,48.25,48.25,0,0,0,1.89-5.51q.8-2.87,1.4-5.83c.41-2,.68-3.76.85-5.33s.36-3.5.55-5.82l4.62-.36,2.45-.19-.32,0a56.2,56.2,0,0,1-.24,6.23c-.15,1.38-.42,3.18-.86,5.39l5.71-.41a52.42,52.42,0,0,0,.88-7,31.13,31.13,0,0,0-.06-4.64l6.88-.52a52.6,52.6,0,0,1-.13,7,53.25,53.25,0,0,1-.89,5.59q-.66,3.06-1.54,5.89a47.6,47.6,0,0,1-2,5.33,52.75,52.75,0,0,1-3.16,5.9l-6.69.8c1.63-3.14,2.7-5.51,3.35-7a49.45,49.45,0,0,0,1.78-5l-5.74.47c-.58,1.68-1.21,3.25-1.87,4.71s-1.91,4-3.91,7.51l-6.79.81Z" transform="translate(-109.46 -227.45)"/>
        <path class="cls-3" d="M175.81,403.26a83.51,83.51,0,0,0,4-8,55.85,55.85,0,0,0,2.22-6.2c.56-2,1-4,1.43-6s.87-5.09,1.26-9.15l6.25-.49,11.19-.86a26.83,26.83,0,0,1-.32,6.22l-11.4.88c-.23,2-.51,3.6-.8,4.91l11.41-1a44.09,44.09,0,0,1-1.74,5.85l-11.52,1.18a58,58,0,0,1-2.5,6l11.78-1.2c-1,2-2,3.9-3.19,5.84l-18.13,2.15Z" transform="translate(-109.46 -227.45)"/>
      </g>
      <g>
        <path class="cls-5" d="M166.24,330.52c.76,3.19,1.24,5.67,1.52,7.44l-7.19.19c.56,3.55.86,6.41,1,8.6s.18,4.32.12,6.4a83.46,83.46,0,0,1-1.31,11.2l-6.7.42a108.54,108.54,0,0,0,1.26-15.41,47.06,47.06,0,0,0-1.17-10.92l-6,.15c-.64-3.53-1.25-6.12-1.7-7.75l1,0Z" transform="translate(-109.46 -227.45)"/>
        <path class="cls-5" d="M169.66,359.79c.71-4.41,1-7.37,1.07-8.86s.11-3.15.05-5a68.67,68.67,0,0,0-.71-7.29c-.44-3-.76-4.91-.83-5.7a2.46,2.46,0,0,1,.55-1.93,3.09,3.09,0,0,1,2.18-.83c1-.07,3-.12,5.84-.17s5-.05,6.44,0a4.8,4.8,0,0,1,3.34,1.2c.8.77,1.49,2.47,2,5.07a68.31,68.31,0,0,1,1.13,15.28c-.09,2-.24,3.7-.42,5.17a9.38,9.38,0,0,1-.85,3.2,6.74,6.74,0,0,1-1.5,1.82,3.91,3.91,0,0,1-2.13.94c-.78.09-2.87.22-6.29.39l-6.9.37a2.66,2.66,0,0,1-2.36-.66,3.16,3.16,0,0,1-.64-1.73A4.46,4.46,0,0,1,169.66,359.79Zm7.37-5.18a6.94,6.94,0,0,0,0,.77,3.11,3.11,0,0,0,.23,1.12.75.75,0,0,0,.82.48c.42,0,1.22-.05,2.4-.09s1.91-.07,2.18-.11a1.19,1.19,0,0,0,.74-.57,4.48,4.48,0,0,0,.52-1.15,9.5,9.5,0,0,0,.27-2.06c.05-.95.09-2.05.1-3.32s0-2.8-.12-4.6-.25-3.53-.46-5.19a9.93,9.93,0,0,0-.77-3.24,1.41,1.41,0,0,0-1.18-.77c-.5,0-1.25,0-2.25,0s-1.68.05-2,.09a.87.87,0,0,0-.74.53,2.32,2.32,0,0,0-.16,1.2c0,.49.18,1.68.37,3.57s.3,3.41.34,4.58.05,2.23,0,3.16S177.24,351.82,177,354.61Z" transform="translate(-109.46 -227.45)"/>
        <path class="cls-5" d="M156.7,376.05c-.11,3-.32,5.27-.52,6.92l-7.31.64a79.08,79.08,0,0,1-1.38,7.94q-.7,3-1.67,5.87a84.46,84.46,0,0,1-4.48,10.17l-6.88.82a99.85,99.85,0,0,0,5.6-14,40.17,40.17,0,0,0,1.87-10.07l-6.05.53c.34-3.27.44-5.69.44-7.21l1-.08Z" transform="translate(-109.46 -227.45)"/>
        <path class="cls-5" d="M151.21,406.32a84.69,84.69,0,0,0,4-8,48.25,48.25,0,0,0,1.89-5.51q.8-2.87,1.4-5.83c.41-2,.68-3.76.85-5.33s.36-3.5.55-5.82l4.62-.36,2.45-.19-.32,0a56.2,56.2,0,0,1-.24,6.23c-.15,1.38-.42,3.18-.86,5.39l5.71-.41a52.42,52.42,0,0,0,.88-7,31.13,31.13,0,0,0-.06-4.64l6.88-.52a52.6,52.6,0,0,1-.13,7,53.25,53.25,0,0,1-.89,5.59q-.66,3.06-1.54,5.89a47.6,47.6,0,0,1-2,5.33,52.75,52.75,0,0,1-3.16,5.9l-6.69.8c1.63-3.14,2.7-5.51,3.35-7a49.45,49.45,0,0,0,1.78-5l-5.74.47c-.58,1.68-1.21,3.25-1.87,4.71s-1.91,4-3.91,7.51l-6.79.81Z" transform="translate(-109.46 -227.45)"/>
        <path class="cls-5" d="M175.81,403.26a83.51,83.51,0,0,0,4-8,55.85,55.85,0,0,0,2.22-6.2c.56-2,1-4,1.43-6s.87-5.09,1.26-9.15l6.25-.49,11.19-.86a26.83,26.83,0,0,1-.32,6.22l-11.4.88c-.23,2-.51,3.6-.8,4.91l11.41-1a44.09,44.09,0,0,1-1.74,5.85l-11.52,1.18a58,58,0,0,1-2.5,6l11.78-1.2c-1,2-2,3.9-3.19,5.84l-18.13,2.15Z" transform="translate(-109.46 -227.45)"/>
      </g>
      <g>
        <path class="cls-2" d="M166.24,330.52c.76,3.19,1.24,5.67,1.52,7.44l-7.19.19c.56,3.55.86,6.41,1,8.6s.18,4.32.12,6.4a83.46,83.46,0,0,1-1.31,11.2l-6.7.42a108.54,108.54,0,0,0,1.26-15.41,47.06,47.06,0,0,0-1.17-10.92l-6,.15c-.64-3.53-1.25-6.12-1.7-7.75l1,0Z" transform="translate(-109.46 -227.45)"/>
        <path class="cls-2" d="M169.66,359.79c.71-4.41,1-7.37,1.07-8.86s.11-3.15.05-5a68.67,68.67,0,0,0-.71-7.29c-.44-3-.76-4.91-.83-5.7a2.46,2.46,0,0,1,.55-1.93,3.09,3.09,0,0,1,2.18-.83c1-.07,3-.12,5.84-.17s5-.05,6.44,0a4.8,4.8,0,0,1,3.34,1.2c.8.77,1.49,2.47,2,5.07a68.31,68.31,0,0,1,1.13,15.28c-.09,2-.24,3.7-.42,5.17a9.38,9.38,0,0,1-.85,3.2,6.74,6.74,0,0,1-1.5,1.82,3.91,3.91,0,0,1-2.13.94c-.78.09-2.87.22-6.29.39l-6.9.37a2.66,2.66,0,0,1-2.36-.66,3.16,3.16,0,0,1-.64-1.73A4.46,4.46,0,0,1,169.66,359.79Zm7.37-5.18a6.94,6.94,0,0,0,0,.77,3.11,3.11,0,0,0,.23,1.12.75.75,0,0,0,.82.48c.42,0,1.22-.05,2.4-.09s1.91-.07,2.18-.11a1.19,1.19,0,0,0,.74-.57,4.48,4.48,0,0,0,.52-1.15,9.5,9.5,0,0,0,.27-2.06c.05-.95.09-2.05.1-3.32s0-2.8-.12-4.6-.25-3.53-.46-5.19a9.93,9.93,0,0,0-.77-3.24,1.41,1.41,0,0,0-1.18-.77c-.5,0-1.25,0-2.25,0s-1.68.05-2,.09a.87.87,0,0,0-.74.53,2.32,2.32,0,0,0-.16,1.2c0,.49.18,1.68.37,3.57s.3,3.41.34,4.58.05,2.23,0,3.16S177.24,351.82,177,354.61Z" transform="translate(-109.46 -227.45)"/>
        <path class="cls-2" d="M156.7,376.05c-.11,3-.32,5.27-.52,6.92l-7.31.64a79.08,79.08,0,0,1-1.38,7.94q-.7,3-1.67,5.87a84.46,84.46,0,0,1-4.48,10.17l-6.88.82a99.85,99.85,0,0,0,5.6-14,40.17,40.17,0,0,0,1.87-10.07l-6.05.53c.34-3.27.44-5.69.44-7.21l1-.08Z" transform="translate(-109.46 -227.45)"/>
        <path class="cls-2" d="M151.21,406.32a84.69,84.69,0,0,0,4-8,48.25,48.25,0,0,0,1.89-5.51q.8-2.87,1.4-5.83c.41-2,.68-3.76.85-5.33s.36-3.5.55-5.82l4.62-.36,2.45-.19-.32,0a56.2,56.2,0,0,1-.24,6.23c-.15,1.38-.42,3.18-.86,5.39l5.71-.41a52.42,52.42,0,0,0,.88-7,31.13,31.13,0,0,0-.06-4.64l6.88-.52a52.6,52.6,0,0,1-.13,7,53.25,53.25,0,0,1-.89,5.59q-.66,3.06-1.54,5.89a47.6,47.6,0,0,1-2,5.33,52.75,52.75,0,0,1-3.16,5.9l-6.69.8c1.63-3.14,2.7-5.51,3.35-7a49.45,49.45,0,0,0,1.78-5l-5.74.47c-.58,1.68-1.21,3.25-1.87,4.71s-1.91,4-3.91,7.51l-6.79.81Z" transform="translate(-109.46 -227.45)"/>
        <path class="cls-2" d="M175.81,403.26a83.51,83.51,0,0,0,4-8,55.85,55.85,0,0,0,2.22-6.2c.56-2,1-4,1.43-6s.87-5.09,1.26-9.15l6.25-.49,11.19-.86a26.83,26.83,0,0,1-.32,6.22l-11.4.88c-.23,2-.51,3.6-.8,4.91l11.41-1a44.09,44.09,0,0,1-1.74,5.85l-11.52,1.18a58,58,0,0,1-2.5,6l11.78-1.2c-1,2-2,3.9-3.19,5.84l-18.13,2.15Z" transform="translate(-109.46 -227.45)"/>
      </g>
    </g>
    <g>
      <path class="cls-3" d="M350.84,260.27q5.36,4.32,10.33,8.69,17.68,1.65,35.38,3.3a224.33,224.33,0,0,1,14.91,17.14c4.8,6.13,7.88,11.8,9.47,17l-35-1.08q2.16,5.34,3.82,10.67c-9.83-9.06-21.45-19.6-35.9-31.53A103.24,103.24,0,0,0,350.84,260.27Zm66.67,14.22a132.21,132.21,0,0,1,14.13,15.78A62.18,62.18,0,0,1,440.75,307l-14-.4c-.65-4.08-3.76-10.25-10.48-18.58a156.77,156.77,0,0,0-13.84-15.19ZM446.66,307a60.74,60.74,0,0,0-5-10.38c-2-3.14-7.28-10.4-18.75-21.67l9.94,1A121.1,121.1,0,0,1,443,286c1.24,1.5,3.83,4.62,7.31,9.36s5.38,8.7,6,11.92Zm16.2.46a43.28,43.28,0,0,0-4.69-9.57,67.49,67.49,0,0,0-5.78-7.59c-2-2.29-6-6.76-13-13.37l6.78.65a54.27,54.27,0,0,1,6.4,5.61c2.27,2.3,3.66,3.81,4.28,4.53s1.65,1.84,3,3.37,5.33,7,9.85,16.52Zm11.56,0c-.8-2.25-1.43-3.81-1.81-4.69a22,22,0,0,0-1.86-3.32c-.88-1.33-2.08-3.23-3.72-5.69s-6.09-7.59-14.66-15.4l4.22.29c6,4.94,9.76,8.71,11.68,11.34s3.93,5.47,6,8.54a23.75,23.75,0,0,1,4,9.09Z" transform="translate(-109.46 -227.45)"/>
      <path class="cls-6" d="M350.84,260.27q5.36,4.32,10.33,8.69,17.68,1.65,35.38,3.3a224.33,224.33,0,0,1,14.91,17.14c4.8,6.13,7.88,11.8,9.47,17l-35-1.08q2.16,5.34,3.82,10.67c-9.83-9.06-21.45-19.6-35.9-31.53A103.24,103.24,0,0,0,350.84,260.27Zm66.67,14.22a132.21,132.21,0,0,1,14.13,15.78A62.18,62.18,0,0,1,440.75,307l-14-.4c-.65-4.08-3.76-10.25-10.48-18.58a156.77,156.77,0,0,0-13.84-15.19ZM446.66,307a60.74,60.74,0,0,0-5-10.38c-2-3.14-7.28-10.4-18.75-21.67l9.94,1A121.1,121.1,0,0,1,443,286c1.24,1.5,3.83,4.62,7.31,9.36s5.38,8.7,6,11.92Zm16.2.46a43.28,43.28,0,0,0-4.69-9.57,67.49,67.49,0,0,0-5.78-7.59c-2-2.29-6-6.76-13-13.37l6.78.65a54.27,54.27,0,0,1,6.4,5.61c2.27,2.3,3.66,3.81,4.28,4.53s1.65,1.84,3,3.37,5.33,7,9.85,16.52Zm11.56,0c-.8-2.25-1.43-3.81-1.81-4.69a22,22,0,0,0-1.86-3.32c-.88-1.33-2.08-3.23-3.72-5.69s-6.09-7.59-14.66-15.4l4.22.29c6,4.94,9.76,8.71,11.68,11.34s3.93,5.47,6,8.54a23.75,23.75,0,0,1,4,9.09Z" transform="translate(-109.46 -227.45)"/>
      <path class="cls-2" d="M350.84,260.27q5.36,4.32,10.33,8.69,17.68,1.65,35.38,3.3a224.33,224.33,0,0,1,14.91,17.14c4.8,6.13,7.88,11.8,9.47,17l-35-1.08q2.16,5.34,3.82,10.67c-9.83-9.06-21.45-19.6-35.9-31.53A103.24,103.24,0,0,0,350.84,260.27Zm66.67,14.22a132.21,132.21,0,0,1,14.13,15.78A62.18,62.18,0,0,1,440.75,307l-14-.4c-.65-4.08-3.76-10.25-10.48-18.58a156.77,156.77,0,0,0-13.84-15.19ZM446.66,307a60.74,60.74,0,0,0-5-10.38c-2-3.14-7.28-10.4-18.75-21.67l9.94,1A121.1,121.1,0,0,1,443,286c1.24,1.5,3.83,4.62,7.31,9.36s5.38,8.7,6,11.92Zm16.2.46a43.28,43.28,0,0,0-4.69-9.57,67.49,67.49,0,0,0-5.78-7.59c-2-2.29-6-6.76-13-13.37l6.78.65a54.27,54.27,0,0,1,6.4,5.61c2.27,2.3,3.66,3.81,4.28,4.53s1.65,1.84,3,3.37,5.33,7,9.85,16.52Zm11.56,0c-.8-2.25-1.43-3.81-1.81-4.69a22,22,0,0,0-1.86-3.32c-.88-1.33-2.08-3.23-3.72-5.69s-6.09-7.59-14.66-15.4l4.22.29c6,4.94,9.76,8.71,11.68,11.34s3.93,5.47,6,8.54a23.75,23.75,0,0,1,4,9.09Z" transform="translate(-109.46 -227.45)"/>
    </g>
  </g>
</svg>
